# xmcd CD database file
#
# Track frame offsets:
#	150
#	18695
#	33483
#	52111
#	72472
#	88558
#	106679
#	123679
#	141783
#	156587
#	172359
#	189685
#	214787
#	232173
#	247596
#	267589
#	285053
#	301125
#	315975
#	332442
#
# Disc length: 4696 seconds
#
# Revision: 5
# Processed by: cddbd v1.5.2PL0 Copyright (c) Steve Scherf et al.
# Submitted via: CDex 1.51
#
DISCID=25125614
DTITLE=The Real Book Play-Along - Volume I A-D CD2
DYEAR=1900
DGENRE=Jazz
TTITLE0=Blue Train (Blue Trane)
TTITLE1=Blues for Alice
TTITLE2=Bluesette
TTITLE3=Body and Soul
TTITLE4=Boplicity (Be Bop Lives)
TTITLE5=Bright Size Life
TTITLE6=Broadway
TTITLE7=But Beautiful
TTITLE8=Call Me
TTITLE9=Call Me Irresponsible
TTITLE10=Can't Help Lovin' Dat Man
TTITLE11=Captain Marvel
TTITLE12=Ceora
TTITLE13=Chega de Saudade (No More Blues)
TTITLE14=Chelsea Bridge
TTITLE15=Cherokee (Indian Love Song)
TTITLE16=Cherry Pink and Apple Blossom White
TTITLE17=A Child Is Born
TTITLE18=Chitlins Con Carne
TTITLE19=Come Sunday
EXTD=
EXTT0=
EXTT1=
EXTT2=
EXTT3=
EXTT4=
EXTT5=
EXTT6=
EXTT7=
EXTT8=
EXTT9=
EXTT10=
EXTT11=
EXTT12=
EXTT13=
EXTT14=
EXTT15=
EXTT16=
EXTT17=
EXTT18=
EXTT19=
PLAYORDER=
